<svg width="47" height="50" viewBox="0 0 47 50" fill="none" xmlns="http://www.w3.org/2000/svg">
<path d="M14.3382 28.7992C14.3382 28.7992 13.0171 28.6768 13.0171 29.7081C13.0171 35.5341 17.5022 39.6862 24.5486 39.6862C29.779 39.6862 32.0126 38.4667 35.1714 36.1767C35.9104 35.6402 36.6982 35.1403 37.2958 35.7715C37.7121 36.2032 43.2613 41.1632 43.2613 41.1632C43.9566 41.7944 43.7664 42.548 43.021 43.1527C42.2808 43.7599 33.9827 50 24.447 50C11.9748 50 0 44.7459 0 24.9577C0 9.00598 9.3339 0 23.0282 0C37.7378 0 46.0526 9.94521 46.0526 23.357V26.7503C46.0526 28.1339 44.8934 28.7992 43.9373 28.7992H14.3382ZM31.8507 15.1968C30.4319 12.2933 27.4954 10.1283 23.0282 10.1283C18.5663 10.1283 15.6259 12.2933 14.2058 15.1968C13.3949 16.9806 13.0852 18.296 12.9837 20.4497H33.0715C32.9687 18.296 32.6616 16.9806 31.8507 15.1968Z" fill="white"/>
</svg>
